HIERARCHY
ROOT Hips
{
	OFFSET 0.000000 0.000000 0.000000 
	CHANNELS 6 Xposition Yposition Zposition Zrotation Yrotation Xrotation
	JOINT LeftUpLeg
	{
		OFFSET 1.363060 -1.794630 0.839290 
		CHANNELS 3 Zrotation Yrotation Xrotation
		JOINT LeftLeg
		{
			OFFSET 2.448110 -6.726130 0.000000 
			CHANNELS 3 Zrotation Yrotation Xrotation
			JOINT LeftFoot
			{
				OFFSET 2.562200 -7.039590 0.000000 
				CHANNELS 3 Zrotation Yrotation Xrotation
				JOINT LeftToeBase
				{
					OFFSET 0.157640 -0.433110 2.322550 
					CHANNELS 3 Zrotation Yrotation Xrotation
					End Site
					{
						OFFSET 0.000000 0.000000 0.000000 
					}
				}
			}
		}
	}
	JOINT RightUpLeg
	{
		OFFSET -1.305520 -1.794630 0.839290 
		CHANNELS 3 Zrotation Yrotation Xrotation
		JOINT RightLeg
		{
			OFFSET -2.542530 -6.985550 0.000000 
			CHANNELS 3 Zrotation Yrotation Xrotation
			JOINT RightFoot
			{
				OFFSET -2.568260 -7.056230 0.000000 
				CHANNELS 3 Zrotation Yrotation Xrotation
				JOINT RightToeBase
				{
					OFFSET -0.164730 -0.452590 2.363150 
					CHANNELS 3 Zrotation Yrotation Xrotation
					End Site
					{
						OFFSET 0.000000 0.000000 0.000000 
					}
				}
			}
		}
	}
	JOINT Spine
	{
		OFFSET 0.028270 2.035590 -0.193380 
		CHANNELS 3 Zrotation Yrotation Xrotation
		JOINT Spine1
		{
			OFFSET 0.056720 2.048850 -0.042750 
			CHANNELS 3 Zrotation Yrotation Xrotation
			JOINT Neck1
			{
				OFFSET -0.054170 1.746240 0.172020 
				CHANNELS 3 Zrotation Yrotation Xrotation
				JOINT Head
				{
					OFFSET 0.104070 1.761360 -0.123970 
					CHANNELS 3 Zrotation Yrotation Xrotation
					End Site
					{
						OFFSET 0.000000 0.000000 0.000000 
					}
				}
			}
			JOINT LeftArm
			{
				OFFSET 3.362410 1.200890 -0.311210 
				CHANNELS 3 Zrotation Yrotation Xrotation
				JOINT LeftForeArm
				{
					OFFSET 4.983000 -0.000000 -0.000000 
					CHANNELS 3 Zrotation Yrotation Xrotation
					JOINT LeftHand
					{
						OFFSET 3.483560 -0.000000 -0.000000 
						CHANNELS 3 Zrotation Yrotation Xrotation
						JOINT LeftHandIndex1
						{
							OFFSET 0.715260 -0.000000 -0.000000 
							CHANNELS 3 Zrotation Yrotation Xrotation
							End Site
							{
								OFFSET 0.000000 0.000000 0.000000 
							}
						}
					}
				}
			}
			JOINT RightArm
			{
				OFFSET -3.136600 1.374050 -0.404650 
				CHANNELS 3 Zrotation Yrotation Xrotation
				JOINT RightForeArm
				{
					OFFSET -5.241900 -0.000000 -0.000000 
					CHANNELS 3 Zrotation Yrotation Xrotation
					JOINT RightHand
					{
						OFFSET -3.444170 -0.000000 -0.000000 
						CHANNELS 3 Zrotation Yrotation Xrotation
						JOINT RightHandIndex1
						{
							OFFSET -0.622530 -0.000000 -0.000000 
							CHANNELS 3 Zrotation Yrotation Xrotation
							End Site
							{
								OFFSET 0.000000 0.000000 0.000000 
							}
						}
					}
				}
			}
		}
	}
}
MOTION
Frames: 6
Frame Time: 0.041667
10.233417 17.875460 -38.134647 -1.687236 -7.397070 12.697655 -21.950448 -10.468623 -3.570582 -0.158319 2.028295 7.359723 1.435947 7.319529 -24.253165 2.046600 -8.962400 -25.677800 28.777718 11.288964 -6.377392 -0.858175 -3.551332 14.013786 -0.905599 5.771282 -17.501166 -0.218000 -3.005600 8.294200 0.510419 1.981437 -4.969613 1.658217 0.945698 3.644623 12.995944 -1.536142 13.425848 5.166700 -0.435500 4.916000 -88.174229 -3.614120 16.746288 5.009488 -12.742858 -1.316324 0.646293 0.761312 33.884185 -7.125000 0.000000 0.000000 82.235989 -1.090465 -22.962791 -0.610392 13.525942 -2.134262 -1.263324 -2.176007 31.588648 7.125000 0.000000 0.000000 
10.216707 17.876630 -38.149761 -1.204457 -7.506101 12.529537 -22.453050 -10.342676 -3.453400 -0.168760 2.004395 7.303070 1.388704 7.676514 -24.073777 2.827900 -10.411000 -30.318300 28.223709 11.460827 -6.603282 -0.865905 -3.731017 14.469759 -1.201559 5.290242 -19.515868 -0.405000 4.085700 -11.318000 0.500441 1.965572 -4.944950 1.792531 0.942438 3.406795 11.254151 -0.004106 10.864595 4.179400 0.207000 3.487000 -88.287249 -3.745219 17.346615 5.258057 -13.101545 -1.373940 0.652790 0.767064 33.276800 -7.125000 0.000000 0.000000 82.133217 -0.892227 -22.696066 -0.571217 13.485024 -2.131484 -1.285938 -2.157532 31.687962 7.125000 0.000000 0.000000 
10.196060 17.877375 -38.164342 -0.767173 -7.616043 12.359662 -22.881933 -10.272152 -3.342478 -0.178214 1.996110 7.283359 1.298468 8.274642 -23.685062 3.861400 -11.973700 -35.639100 27.740097 11.722367 -6.879327 -0.895285 -3.965555 15.067628 -1.535010 5.124186 -21.733840 -1.578100 7.925600 -22.488300 0.501493 2.009261 -4.921488 1.913661 0.974413 3.080603 6.807149 1.793152 8.548371 2.141500 0.960200 2.214400 -88.337649 -3.860791 18.277972 5.507863 -13.470440 -1.420389 0.658403 0.766271 32.464992 -7.125000 0.000000 0.000000 82.071281 -0.708253 -23.352431 -0.519821 13.210006 -2.109014 -1.324816 -2.121015 32.322764 7.125000 0.000000 0.000000 
10.173284 17.876098 -38.175410 -0.528473 -7.627661 12.281839 -23.044372 -10.258820 -3.331681 -0.179908 2.006469 7.307837 1.251417 8.560936 -23.466449 4.710800 -13.050500 -39.558000 27.464331 12.193804 -7.112249 -0.891874 -4.052131 15.222159 -1.748003 5.122174 -23.104245 -3.751000 11.821500 -35.103400 0.493610 2.076230 -4.869517 2.016124 0.997822 3.161700 7.923866 1.725545 8.702046 2.701400 0.935400 2.313600 -88.260994 -4.083987 19.807964 5.827160 -13.915453 -1.462816 0.649654 0.771033 31.123203 -7.125000 0.000000 0.000000 82.060762 -0.569515 -23.863875 -0.542804 13.104214 -2.098299 -1.334214 -2.096237 32.722587 7.125000 0.000000 0.000000 
10.145825 17.874076 -38.185415 -0.238556 -7.727038 12.111160 -23.238389 -10.137968 -3.287693 -0.174487 2.029917 7.376258 1.258692 8.469352 -23.470476 5.269100 -13.680600 -41.972900 27.134322 12.371653 -7.385800 -0.927687 -4.271225 15.773085 -2.173306 5.408418 -25.643450 -3.880600 11.999800 -35.731200 0.457563 2.064241 -4.952480 1.938326 1.008757 2.735178 9.444860 1.263057 9.674134 3.507400 0.750100 2.960900 -88.100439 -3.748581 21.347210 6.269589 -14.512369 -1.533759 0.624069 0.795810 29.625584 -7.125000 0.000000 0.000000 82.199041 -1.008225 -23.333031 -0.617080 13.368351 -2.132179 -1.335943 -2.112648 32.256048 7.125000 0.000000 0.000000 
10.112299 17.871522 -38.196590 0.037397 -7.866365 11.879692 -23.411599 -10.055445 -3.105681 -0.173412 2.049182 7.429792 1.266985 8.458748 -23.536020 5.747300 -14.178900 -43.959000 26.909504 12.710860 -7.500364 -0.962492 -4.484961 16.316031 -2.651497 5.616284 -28.251281 -3.619700 11.636400 -34.457700 0.497505 2.056320 -4.872512 2.149930 0.971259 2.902695 8.741053 0.717289 10.493776 3.102400 0.524100 3.549600 -88.133619 -3.910320 22.452858 6.604077 -14.978994 -1.607332 0.615280 0.813842 28.702049 -7.125000 0.000000 0.000000 82.003981 -0.804070 -23.714115 -0.583339 13.185466 -2.119586 -1.324663 -2.116965 32.413107 7.125000 0.000000 0.000000 
